<?xml version="1.0" encoding="UTF-8"?>
<svg version="1.1" xmlns="http://www.w3.org/2000/svg" width="500" height="500">
<path d="M0 0 C0.84746796 -0.00173218 1.69493591 -0.00346436 2.56808472 -0.00524902 C15.59193955 0.00626672 28.35047521 0.90613626 41.25 2.6875 C42.00165436 2.78982941 42.75330872 2.89215881 43.52774048 2.99758911 C59.68436968 5.25297025 76.65738524 7.6620191 88.12890625 20.3359375 C92.17035985 28.35919225 89.47773066 38.22987136 87.1875 46.4375 C86.02123195 49.52582992 84.77502666 52.55357269 83.44873047 55.57592773 C81.3044884 60.64455662 80.23133798 65.66060036 79.25 71.0625 C77.64883873 79.50361419 74.93382151 86.19596947 70.1875 93.4375 C69.80255371 94.02934082 69.41760742 94.62118164 69.02099609 95.23095703 C58.76031109 110.82801419 46.74224886 119.39471047 28.5625 124.25 C23.31442531 124.93659022 19.05585046 123.35221209 14.13745117 121.60742188 C3.52136086 117.96245427 -7.73240281 116.90931007 -18.8125 115.4375 C-20.07102783 115.25743408 -20.07102783 115.25743408 -21.35498047 115.07373047 C-47.88401293 111.29031266 -85.13517309 109.16029809 -108.4375 125.25 C-110.04613635 127.80919419 -110.17975926 129.43357183 -109.546875 132.3828125 C-104.90189769 145.37886603 -94.54226052 152.59644962 -83.69287109 160.12597656 C-81.22767379 161.84540527 -78.78493598 163.59514785 -76.34301758 165.34741211 C-74.58523392 166.60868756 -72.82443464 167.86562514 -71.0625 169.12109375 C-69.06050979 170.54799302 -67.06014804 171.97718429 -65.0625 173.41015625 C-61.10540931 176.22340041 -57.13647234 178.87309702 -52.9375 181.3125 C-42.8316228 187.2748094 -33.78491469 194.91750342 -24.8125 202.4375 C-24.05324219 203.04851562 -23.29398438 203.65953125 -22.51171875 204.2890625 C-6.02958057 218.04857395 3.97760183 237.22901783 10.1875 257.4375 C10.45433594 258.241875 10.72117188 259.04625 10.99609375 259.875 C16.36341046 278.82718037 10.40243734 299.06845861 1.18701172 315.62988281 C0.27146311 317.2856527 -0.59910831 318.96608637 -1.46484375 320.6484375 C-14.02271271 344.04476061 -37.77990823 358.06380369 -61.8125 367.4375 C-65.01088671 368.3828753 -67.90632722 368.4962311 -71.24243164 368.52490234 C-78.90943491 368.66007332 -85.25112837 369.97240138 -92.375 372.8125 C-116.2628315 382.30149208 -142.11520894 381.8967427 -165.92578125 371.8359375 C-177.49859197 366.22962324 -187.27481617 358.69409555 -192.15625 346.4453125 C-197.33192359 330.61021592 -192.50207896 314.97443156 -185.29663086 300.67089844 C-177.04815571 285.1009941 -165.66200299 271.01239023 -153.05834961 258.79370117 C-149.44234986 255.23143619 -146.70405197 251.54722719 -144.01171875 247.2734375 C-140.80827832 242.36914759 -137.30707182 241.19826485 -131.8125 239.875 C-130.801875 239.66746094 -129.79125 239.45992187 -128.75 239.24609375 C-125.77522085 238.5935562 -125.77522085 238.5935562 -123.4375 236.84765625 C-119.18637843 234.56394362 -115.14933538 234.86653648 -110.59423828 235.97949219 C-108.3228309 236.68742485 -106.10261388 237.47738756 -103.875 238.3125 C-102.72547852 238.71662109 -102.72547852 238.71662109 -101.55273438 239.12890625 C-95.94935403 241.16379194 -95.94935403 241.16379194 -94.8125 243.4375 C-101.2475 246.9025 -101.2475 246.9025 -107.8125 250.4375 C-107.68875 252.21125 -107.565 253.985 -107.4375 255.8125 C-107.47911747 262.94573461 -109.64351581 266.80738612 -113.8125 272.4375 C-115.19972312 274.32101639 -116.58678133 276.20465327 -117.97338867 278.08862305 C-118.92346529 279.36949173 -119.88277749 280.6435806 -120.8527832 281.90942383 C-126.53393716 289.42405488 -129.34072741 296.08015936 -130.5625 305.4375 C-130.75005859 306.74267578 -130.75005859 306.74267578 -130.94140625 308.07421875 C-131.24417185 310.19357792 -131.53011438 312.31532926 -131.8125 314.4375 C-125.53199195 314.5996581 -119.88090474 314.15194986 -113.75 312.8125 C-112.92274414 312.63283691 -112.09548828 312.45317383 -111.24316406 312.26806641 C-103.09331219 310.4081482 -95.5041684 307.67506032 -87.8125 304.4375 C-86.480979 303.88352539 -86.480979 303.88352539 -85.12255859 303.31835938 C-61.63227764 293.69956248 -61.63227764 293.69956248 -40.8125 279.4375 C-41.96344525 267.98632317 -48.18091274 256.99330292 -56.8125 249.4375 C-70.88843266 238.24769359 -86.26902229 228.70346198 -101.6875 219.5 C-130.69041152 202.18783737 -130.69041152 202.18783737 -143.12548828 191.83935547 C-144.88287975 190.37901656 -146.65794632 188.94196731 -148.43359375 187.50390625 C-160.95320752 177.23024141 -169.95940293 165.5577398 -177.8125 151.4375 C-178.34101563 150.50550781 -178.86953125 149.57351562 -179.4140625 148.61328125 C-186.05804246 136.23838291 -186.08676636 122.88255512 -182.8125 109.4375 C-177.15541357 90.98964527 -167.56883873 75.80516573 -154.8125 61.4375 C-154.35649414 60.92348633 -153.90048828 60.40947266 -153.43066406 59.87988281 C-135.97999462 40.59091862 -110.50144707 23.86150606 -85.89453125 15.5625 C-84.7978286 15.18718643 -84.7978286 15.18718643 -83.67897034 14.80429077 C-81.3306487 14.00608688 -78.97864741 13.21985247 -76.625 12.4375 C-75.82048401 12.16915344 -75.01596802 11.90080688 -74.18707275 11.62432861 C-61.87565479 7.54115555 -49.7209488 4.02756522 -36.8125 2.4375 C-35.51771729 2.26887451 -34.22293457 2.10024902 -32.88891602 1.92651367 C-21.91468687 0.55652076 -11.05557199 -0.00054601 0 0 Z M-40.8125 20.4375 C-41.61107422 20.5931543 -42.40964844 20.74880859 -43.23242188 20.90917969 C-65.0147508 25.16872176 -87.12377837 32.29008646 -105.8125 44.4375 C-106.45461426 44.84500488 -107.09672852 45.25250977 -107.75830078 45.67236328 C-115.8171909 50.79716274 -123.55734305 56.21054204 -130.8125 62.4375 C-131.76640625 63.24574219 -132.7203125 64.05398437 -133.703125 64.88671875 C-150.87830055 79.79347489 -165.53435221 100.41459229 -168.03515625 123.4921875 C-168.73525037 138.65074714 -158.13240707 152.49248308 -148.8125 163.4375 C-148.17699219 164.26765625 -147.54148437 165.0978125 -146.88671875 165.953125 C-143.1318863 170.45043844 -138.39456439 173.82038486 -133.8125 177.4375 C-132.84183594 178.22382813 -131.87117188 179.01015625 -130.87109375 179.8203125 C-119.47557032 188.8726951 -107.07604031 196.33524169 -94.56884766 203.73925781 C-77.40347582 213.91158406 -60.12704443 224.58547803 -44.8125 237.4375 C-44.06355469 238.06140625 -43.31460938 238.6853125 -42.54296875 239.328125 C-32.57105703 248.40389934 -25.24538182 263.61243818 -22.8125 276.75 C-22.8125 282.84991409 -23.99339443 286.37825933 -27.97265625 290.8828125 C-34.33424519 297.01017504 -41.27599523 301.47101165 -49.07128906 305.53027344 C-50.6799335 306.36842862 -52.27430399 307.233828 -53.8671875 308.1015625 C-71.81601344 317.5459572 -90.98953287 325.11815827 -110.8125 329.4375 C-111.85148437 329.69144531 -112.89046875 329.94539063 -113.9609375 330.20703125 C-123.2768533 332.27575181 -133.39922349 332.13073627 -142 327.640625 C-145.1865354 325.52542478 -146.36611426 324.02202117 -147.8125 320.4375 C-150.49640273 295.58525781 -139.29114379 277.24988751 -124.8125 258.4375 C-125.8025 257.4475 -125.8025 257.4475 -126.8125 256.4375 C-128.82744291 256.43465618 -128.82744291 256.43465618 -130.8125 257.4375 C-132.40445205 259.3336684 -132.40445205 259.3336684 -133.8125 261.75 C-136.64573216 266.02099176 -139.79904691 269.54576262 -143.5 273.0625 C-158.35580324 287.37937031 -176.64694288 310.45169929 -177.125 331.6875 C-177.04837665 338.52996558 -175.92267152 342.97258743 -171.33984375 348.078125 C-158.57243616 360.03059168 -139.43353581 362.98025813 -122.62109375 362.71875 C-111.75486911 362.28349165 -101.55356108 358.62281801 -91.58203125 354.48828125 C-86.49966962 352.55999454 -82.15941627 352.4375 -76.75 352.4375 C-61.32276798 351.85841328 -46.62438499 342.79539227 -34.8125 333.4375 C-33.47832031 332.39335938 -33.47832031 332.39335938 -32.1171875 331.328125 C-17.97030205 319.47415982 -6.19580718 299.11511728 -4.44140625 280.5 C-3.77105742 258.30249774 -13.85159479 238.81180612 -28.45703125 222.48046875 C-39.29462268 210.96906678 -52.31661123 201.58085264 -65.8125 193.4375 C-72.47683719 189.37029421 -78.77201275 185.02658851 -84.90356445 180.19775391 C-88.44791402 177.42537343 -92.075664 174.92046471 -95.875 172.5 C-109.35344428 163.65087608 -121.93282009 151.69307303 -126.5625 135.875 C-127.43231116 127.39434122 -126.68021515 120.34104058 -121.22265625 113.421875 C-104.26647725 96.93172206 -69.77182697 95.89090814 -47.59375 96.15234375 C-25.47372488 96.55678777 -0.53233395 98.44033922 20.5 105.55859375 C27.04662592 107.6995688 33.17022304 104.43398003 39.22265625 101.984375 C45.69062368 98.6097833 49.44539591 94.20324815 53.3125 88.1875 C53.74699463 87.51710693 54.18148926 86.84671387 54.62915039 86.15600586 C59.77225484 78.09792347 62.35690032 71.19799838 63.8996582 61.74707031 C65.03023213 55.3000083 67.27688843 49.62778477 69.8828125 43.64453125 C72.00349854 38.43170719 72.29751281 34.04815316 72.1875 28.4375 C42.78970288 11.72110556 -8.54608322 13.46739525 -40.8125 20.4375 Z " fill="#FF2222" transform="translate(212.8125,49.5625)"/>
<path d="M0 0 C1.79792451 -0.00842287 3.59583484 -0.02183509 5.39367676 -0.04101562 C41.05317395 -0.38897198 75.50087773 8.70399688 101.51202393 34.17456055 C116.29064158 49.22876055 124.17664685 68.72838392 124.38702393 89.79956055 C124.1638648 112.15097585 114.8791458 133.19074591 99.21905518 149.1237793 C92.75875396 155.03309534 84.8600972 161.37552391 77.01202393 165.29956055 C77.48385452 170.60503347 80.35337057 174.34576404 83.19952393 178.67456055 C84.30289139 180.38563757 85.40437582 182.09792995 86.50421143 183.8112793 C87.08138916 184.7089502 87.65856689 185.60662109 88.25323486 186.53149414 C91.18150658 191.14014833 94.00042465 195.81411068 96.82452393 200.48706055 C101.87096985 208.81521825 106.97638268 217.10415142 112.13702393 225.36206055 C113.07832153 226.86965942 113.07832153 226.86965942 114.03863525 228.40771484 C115.19303743 230.25127013 116.3517192 232.0921561 117.51568604 233.9296875 C118.42353137 235.36751661 119.32071006 236.8122579 120.19781494 238.26904297 C122.24293746 241.57838722 122.79883076 242.23090512 126.69952393 243.48706055 C128.46752991 243.77577533 130.23911702 244.04265106 132.01202393 244.29956055 C134.24858093 244.69019568 136.48227076 245.09556113 138.71636963 245.5 C142.14528449 246.11733957 145.57853184 246.70825881 149.01202393 247.29956055 C151.33698489 255.21549907 150.00793353 264.0861843 149.50421143 272.2253418 C149.4335144 273.39546814 149.4335144 273.39546814 149.36138916 274.5892334 C149.24620108 276.49275287 149.12929139 278.39616804 149.01202393 280.29956055 C136.1906297 280.48486404 123.36955358 280.62703923 110.54709339 280.71405792 C104.59310956 280.75582171 98.6400413 280.81247344 92.68658447 280.90307617 C86.94177436 280.98995716 81.19784514 281.0378257 75.45242882 281.05857849 C73.25983495 281.07336846 71.0672897 281.10225089 68.87507057 281.145401 C65.80483229 281.20343363 62.73823938 281.21147588 59.6675415 281.20776367 C58.75979477 281.23652588 57.85204803 281.26528809 56.91679382 281.29492188 C54.3758004 281.26165012 52.40807052 281.15180194 50.01202393 280.29956055 C47.71775757 277.89553289 46.38226452 275.30353249 45.01202393 272.29956055 C44.37154388 271.1005154 43.72656052 269.90384831 43.07427979 268.71118164 C42.45496179 267.50024452 41.83926187 266.28745135 41.22686768 265.07299805 C40.88946564 264.41209167 40.5520636 263.7511853 40.20443726 263.07025146 C39.48738573 261.66564809 38.7717541 260.26031905 38.0574646 258.85430908 C32.43534176 247.79341537 26.74207007 236.78831427 20.69488525 225.95239258 C17.47074953 220.1221033 14.44880722 214.20996969 11.48468018 208.24487305 C10.67697959 206.63126706 9.86895374 205.01782386 9.06060791 203.40454102 C7.85151475 200.99119772 6.64965798 198.57555802 5.46981812 196.14776611 C4.36848888 193.88196081 3.24348343 191.62934886 2.11358643 189.37768555 C1.78894913 188.6923172 1.46431183 188.00694885 1.12983704 187.30081177 C-0.39861268 184.30516421 -1.59943126 182.51772466 -4.55682373 180.85717773 C-9.3084577 180.08496114 -14.17400226 180.29956055 -18.98797607 180.29956055 C-18.98797607 200.75956055 -18.98797607 221.21956055 -18.98797607 242.29956055 C-11.72797607 243.28956055 -4.46797607 244.27956055 3.01202393 245.29956055 C10.74639893 246.63549805 10.74639893 246.63549805 14.01202393 247.29956055 C14.03671474 251.67781175 14.0548795 256.05602622 14.06695557 260.43432617 C14.07198907 261.92424221 14.07881635 263.41415329 14.08746338 264.90405273 C14.09957198 267.04371359 14.10526199 269.18330922 14.10968018 271.32299805 C14.11491699 272.61125488 14.12015381 273.89951172 14.12554932 275.22680664 C14.01202393 278.29956055 14.01202393 278.29956055 13.01202393 280.29956055 C-35.49797607 280.29956055 -84.00797607 280.29956055 -133.98797607 280.29956055 C-135.32152314 276.29891935 -136.37571379 272.87205695 -137.11297607 268.79956055 C-137.2805542 267.90237305 -137.44813232 267.00518555 -137.62078857 266.08081055 C-137.74196045 265.16299805 -137.86313232 264.24518555 -137.98797607 263.29956055 C-138.12590576 262.2837793 -138.26383545 261.26799805 -138.40594482 260.22143555 C-137.98797607 257.29956055 -137.98797607 257.29956055 -135.59344482 255.09643555 C-125.54427185 249.07841653 -115.40382973 243.78158879 -104.98797607 238.29956055 C-104.98797607 173.28956055 -104.98797607 108.27956055 -104.98797607 41.29956055 C-113.56797607 39.97956055 -122.14797607 38.65956055 -130.98797607 37.29956055 C-131.97797607 36.96956055 -132.96797607 36.63956055 -133.98797607 36.29956055 C-134.01704219 31.73707395 -134.03479721 27.17461124 -134.05047607 22.61206055 C-134.05885498 21.31848633 -134.06723389 20.02491211 -134.0758667 18.69213867 C-134.07908936 17.4449707 -134.08231201 16.19780273 -134.08563232 14.9128418 C-134.09086914 13.765979 -134.09610596 12.61911621 -134.10150146 11.4375 C-133.99873414 8.59692277 -133.64114024 6.05912263 -132.98797607 3.29956055 C-126.53004134 2.61462808 -120.15045403 2.24476527 -113.65447998 2.2956543 C-105.66244274 2.33014339 -97.68451558 2.15612827 -89.69614029 1.92925453 C-85.50090855 1.81042342 -81.30545573 1.69975386 -77.11004639 1.58740234 C-76.2359292 1.56378726 -75.36181202 1.54017218 -74.46120644 1.51584148 C-21.69627641 0.0931347 -21.69627641 0.0931347 0 0 Z M-73.61689377 14.17062759 C-75.65976643 14.21499915 -77.70264625 14.25904243 -79.74553299 14.30276108 C-85.62536539 14.42874632 -91.50502983 14.56009914 -97.38454819 14.70000458 C-99.20055598 14.74268492 -101.01659942 14.7838762 -102.83267593 14.82352448 C-105.33338651 14.87865651 -107.83388181 14.93970682 -110.33441162 15.00244141 C-111.07111871 15.01754603 -111.80782579 15.03265066 -112.56685734 15.04821301 C-115.62463151 15.13070085 -118.06495042 15.32521866 -120.98797607 16.29956055 C-121.01486824 17.77862947 -121.03432229 19.25783537 -121.05047607 20.73706055 C-121.06207764 21.56077148 -121.0736792 22.38448242 -121.08563232 23.2331543 C-121.22064955 25.29119993 -121.22064955 25.29119993 -119.98797607 26.29956055 C-118.25975675 26.59786517 -116.52148311 26.83839904 -114.78094482 27.0534668 C-113.71940186 27.1855957 -112.65785889 27.31772461 -111.56414795 27.45385742 C-110.44588623 27.58856445 -109.32762451 27.72327148 -108.17547607 27.86206055 C-107.06881592 28.00063477 -105.96215576 28.13920898 -104.82196045 28.28198242 C-100.50029726 28.81271299 -96.34779495 29.29956055 -91.98797607 29.29956055 C-91.98797607 101.23956055 -91.98797607 173.17956055 -91.98797607 247.29956055 C-94.95797607 248.28956055 -97.92797607 249.27956055 -100.98797607 250.29956055 C-103.4036653 251.33432333 -103.4036653 251.33432333 -105.37469482 252.4206543 C-106.08561279 252.79899414 -106.79653076 253.17733398 -107.5289917 253.56713867 C-108.59150146 254.14625 -108.59150146 254.14625 -109.67547607 254.73706055 C-110.39541748 255.11926758 -111.11535889 255.50147461 -111.8571167 255.89526367 C-113.91814242 257.00186727 -115.95652572 258.13967945 -117.98797607 259.29956055 C-118.90570801 259.81220459 -118.90570801 259.81220459 -119.84197998 260.33520508 C-121.70595567 261.40508341 -121.70595567 261.40508341 -123.98797607 263.29956055 C-123.98797607 264.61956055 -123.98797607 265.93956055 -123.98797607 267.29956055 C-121.52630197 268.5303976 -119.92058041 268.42537501 -117.16729736 268.42654419 C-116.14932571 268.42936401 -115.13135406 268.43218384 -114.08253479 268.43508911 C-112.96142807 268.43306488 -111.84032135 268.43104065 -110.6852417 268.42895508 C-109.50798019 268.4307074 -108.33071869 268.43245972 -107.11778259 268.43426514 C-103.884385 268.43791933 -100.65102815 268.43705274 -97.41763115 268.43388605 C-94.03796171 268.4313589 -90.65829504 268.43370098 -87.27862549 268.43527222 C-81.60247304 268.43709287 -75.92633358 268.43469033 -70.25018311 268.42993164 C-63.6825241 268.42448922 -57.11489613 268.42625195 -50.54723787 268.43175805 C-44.9140892 268.43629214 -39.28094988 268.43693827 -33.64779997 268.43431938 C-30.28086558 268.43275824 -26.91394579 268.43255839 -23.54701233 268.43585587 C-19.79489008 268.43838362 -16.04282818 268.43454 -12.29071045 268.42895508 C-11.16960373 268.43097931 -10.04849701 268.43300354 -8.89341736 268.43508911 C-7.36645988 268.43085938 -7.36645988 268.43085938 -5.80865479 268.42654419 C-4.47687321 268.42597865 -4.47687321 268.42597865 -3.11818695 268.42540169 C-0.93405337 268.43663645 -0.93405337 268.43663645 1.01202393 267.29956055 C1.01202393 264.32956055 1.01202393 261.35956055 1.01202393 258.29956055 C-9.9984351 255.86361828 -20.70130003 254.55363566 -31.98797607 253.29956055 C-31.98797607 224.91956055 -31.98797607 196.53956055 -31.98797607 167.29956055 C-19.77797607 167.62956055 -7.56797607 167.95956055 5.01202393 168.29956055 C6.31655518 170.85963867 7.62108643 173.4197168 8.96514893 176.05737305 C20.74646164 199.18666509 20.74646164 199.18666509 33.05157471 222.03930664 C36.23486476 227.80425744 39.22566151 233.64297398 42.13702393 239.54956055 C45.45576886 246.27533625 48.89325747 252.91728403 52.51202393 259.48706055 C52.9337085 260.26017578 53.35539307 261.03329102 53.78985596 261.82983398 C55.72816483 265.70481788 55.72816483 265.70481788 59.01202393 268.29956055 C61.41210537 268.40267434 63.78336315 268.44637763 66.18389893 268.44482422 C67.29142517 268.44986214 67.29142517 268.44986214 68.42132568 268.45500183 C70.86824208 268.46452093 73.31509015 268.4664553 75.76202393 268.4675293 C77.45831328 268.47074076 79.15460235 268.47410475 80.85089111 268.47761536 C84.40851484 268.48360871 87.96611426 268.485455 91.52374268 268.48486328 C96.09051806 268.48476154 100.65713837 268.4984247 105.22387695 268.51563549 C108.72736329 268.52673269 112.23081184 268.52878321 115.73431396 268.52825356 C117.41848282 268.5294367 119.10265257 268.53387709 120.7868042 268.54158592 C123.13803098 268.55134179 125.48891711 268.54852563 127.84014893 268.54248047 C128.54047241 268.54809998 129.2407959 268.55371948 129.96234131 268.55950928 C133.93109335 268.6363062 133.93109335 268.6363062 137.01202393 266.29956055 C137.17879675 262.71612079 137.17879675 262.71612079 137.01202393 259.29956055 C133.88917961 257.75944434 131.82461561 257.29739284 128.29718018 257.2565918 C123.48352141 257.19376521 119.2485446 256.73134039 115.01202393 254.29956055 C109.62615338 248.62475135 106.25165485 241.2948191 102.67071533 234.41088867 C100.15362304 229.68939557 97.30897777 225.19387153 94.44952393 220.67456055 C93.37374994 218.9437554 92.29952917 217.21198388 91.22686768 215.47924805 C90.69690186 214.62556641 90.16693604 213.77188477 89.62091064 212.89233398 C87.45691755 209.40498852 85.29683055 205.91523231 83.13702393 202.42529297 C82.0604462 200.68572063 80.98362635 198.94629811 79.90655518 197.20703125 C77.08298622 192.64742998 74.26232362 188.08606136 71.44561768 183.5222168 C70.8603833 182.57475586 70.27514893 181.62729492 69.67218018 180.65112305 C68.55543527 178.84305987 67.43949937 177.03449667 66.32452393 175.2253418 C64.15499743 171.71435236 61.98262457 168.22600562 59.64093018 164.8269043 C58.01202393 162.29956055 58.01202393 162.29956055 58.01202393 160.29956055 C59.55309814 159.5725293 59.55309814 159.5725293 61.12530518 158.83081055 C82.31378188 148.66105989 99.76895449 134.25241591 108.01202393 111.73706055 C113.4995973 95.25528634 112.62908404 76.91817648 105.32452393 61.17456055 C102.20996435 55.2838133 98.43707966 50.26405165 94.01202393 45.29956055 C93.40745361 44.61249023 92.8028833 43.92541992 92.17999268 43.2175293 C74.00709589 23.82035315 46.08224244 14.08272367 19.93048096 13.02856445 C14.10306425 12.88927052 8.27782888 12.93548459 2.44952393 12.98706055 C0.19911825 12.99655242 -2.05128873 13.00573652 -4.30169678 13.01464844 C-27.40932298 13.14892877 -50.51492951 13.66856945 -73.61689377 14.17062759 Z " fill="#ADADAD" transform="translate(340.98797607421875,172.700439453125)"/>
<path d="M0 0 C4.15603977 -0.44555084 6.46823102 -0.13119637 9.9296875 2.328125 C23.0460218 14.89384856 29.86896729 31.96186779 30.62109375 49.9921875 C30.87384736 65.86428108 29.89476443 80.15373346 20.28515625 93.44921875 C19.68703125 94.35671875 19.08890625 95.26421875 18.47265625 96.19921875 C7.96483564 107.0072628 -6.28499644 110.52424443 -20.8203125 111.421875 C-30.83104343 111.49216097 -41.0547576 110.03674183 -50.71484375 107.44921875 C-52.65781699 105.50624551 -51.83504673 102.56417694 -51.83926392 99.97866821 C-51.83566864 99.04718964 -51.83207336 98.11571106 -51.82836914 97.15600586 C-51.82851517 96.18050278 -51.82866119 95.20499969 -51.82881165 94.19993591 C-51.82811208 90.95878922 -51.82031766 87.71769921 -51.8125 84.4765625 C-51.81063597 82.23596732 -51.809212 79.99537173 -51.80821228 77.754776 C-51.80438588 71.84462365 -51.79455455 65.9344957 -51.7835083 60.02435303 C-51.77329681 53.99866058 -51.76871522 47.97296422 -51.76367188 41.94726562 C-51.75293239 30.11457259 -51.73585451 18.28189769 -51.71484375 6.44921875 C-48.06128984 5.23136745 -44.45310847 4.90568704 -40.64453125 4.51171875 C-39.45103561 4.38422241 -39.45103561 4.38422241 -38.23342896 4.25415039 C-35.68588924 3.98269865 -33.13789063 3.71586363 -30.58984375 3.44921875 C-28.8971024 3.26984256 -27.20439365 3.09015841 -25.51171875 2.91015625 C-23.10752313 2.65459735 -20.7032917 2.39946441 -18.29879761 2.14672852 C-14.47515896 1.74478964 -10.65220969 1.33698863 -6.83032227 0.91870117 C-6.10651871 0.83955978 -5.38271515 0.7604184 -4.63697815 0.67887878 C-3.0858738 0.49355008 -1.54118088 0.25501554 0 0 Z M-12.07421875 14.2890625 C-13.08080536 14.41868126 -13.08080536 14.41868126 -14.10772705 14.55091858 C-15.51301447 14.73289861 -16.91802332 14.91704194 -18.32275391 15.10327148 C-20.47228007 15.38770274 -22.62273572 15.66406734 -24.7734375 15.93945312 C-31.83921815 16.74664023 -31.83921815 16.74664023 -38.71484375 18.44921875 C-38.71484375 44.18921875 -38.71484375 69.92921875 -38.71484375 96.44921875 C-23.45012472 99.50216256 -9.24853391 100.0470925 4.28515625 91.44921875 C11.42110458 85.85507188 15.6162912 78.34787706 17.28515625 69.44921875 C18.82967947 51.12634574 18.4448779 33.49853613 6.93359375 18.3671875 C6.38960938 17.73425781 5.845625 17.10132813 5.28515625 16.44921875 C4.86492187 15.86785156 4.4446875 15.28648437 4.01171875 14.6875 C-0.15456429 11.69946442 -7.25790702 13.66439049 -12.07421875 14.2890625 Z " fill="#AFAFAF" transform="translate(360.71484375,207.55078125)"/>
</svg>
